<?xml version="1.0" encoding="utf-8"?>
<!-- Generator: Adobe Illustrator 27.1.0, SVG Export Plug-In . SVG Version: 6.00 Build 0)  -->
<svg version="1.1" id="Layer_1" xmlns="http://www.w3.org/2000/svg" xmlns:xlink="http://www.w3.org/1999/xlink" x="0px" y="0px"
	 viewBox="0 0 24 25" style="enable-background:new 0 0 24 25;" xml:space="preserve">
<style type="text/css">
	.st0{fill:none;stroke:#000000;stroke-width:2;stroke-miterlimit:10;}
</style>
<g>
	<path class="st0" d="M18.12,22.17H5.88c-2.26,0-4.09-1.83-4.09-4.09V6.91c0-2.26,1.83-4.09,4.09-4.09h12.25
		c2.26,0,4.09,1.83,4.09,4.09v11.17C22.21,20.34,20.38,22.17,18.12,22.17z"/>
	<g>
		<path d="M7.14,18.02C8.84,16.45,8.65,8.1,7.12,7C6.96,6.89,6.1,6.12,7.94,6.12h8.26c0.55,0,1.02,0.4,1.02,0.97v1.72
			c0,0.62-0.16,1.52-1.35-0.09c-0.27-0.37-0.8-2.05-2.05-2.05h-1.61c-0.2,0-0.38,0.37-0.48,0.48c-0.49,0.68-0.66,3.02-0.69,5.14
			h1.64c0.49,0,0.91-0.66,1.08-1.06c0.29-0.77,0.73-0.33,0.73,0v3.12c0,0.15-0.37,0.66-0.73,0c-0.22-0.4-0.44-1.52-1.08-1.52h-1.64
			c0.02,2.38,0.29,4.66,0.82,5.19c0.35,0.35,0.88,0.86-0.82,0.86H7.94C6.26,18.88,6.79,18.33,7.14,18.02z"/>
	</g>
</g>
</svg>
